<svg id="visual" viewBox="0 0 2000 1080" width="2000" height="1080" xmlns="http://www.w3.org/2000/svg" xmlns:xlink="http://www.w3.org/1999/xlink" version="1.1">

<path d="M0 972L125 971L250 949L375 993L500 976L625 971L750 981L875 960L1000 946L1125 953L1250 944L1375 985L1500 974L1625 971L1750 965L1875 952L2000 959L2000 1081L1875 1081L1750 1081L1625 1081L1500 1081L1375 1081L1250 1081L1125 1081L1000 1081L875 1081L750 1081L625 1081L500 1081L375 1081L250 1081L125 1081L0 1081Z" fill="#bfa38a"></path>

<path d="M0 992L125 962L250 957L375 958L500 984L625 1008L750 968L875 962L1000 1002L1125 997L1250 983L1375 970L1500 989L1625 971L1750 984L1875 973L2000 956L2000 1081L1875 1081L1750 1081L1625 1081L1500 1081L1375 1081L1250 1081L1125 1081L1000 1081L875 1081L750 1081L625 1081L500 1081L375 1081L250 1081L125 1081L0 1081Z" fill="#ac8f76"></path>

<path d="M0 993L125 999L250 986L375 1004L500 987L625 991L750 977L875 999L1000 1000L1125 995L1250 990L1375 975L1500 1010L1625 1012L1750 995L1875 997L2000 1003L2000 1081L1875 1081L1750 1081L1625 1081L1500 1081L1375 1081L1250 1081L1125 1081L1000 1081L875 1081L750 1081L625 1081L500 1081L375 1081L250 1081L125 1081L0 1081Z" fill="#997b63"></path>

<path d="M0 1018L125 996L250 1026L375 1005L500 1007L625 1002L750 1012L875 1003L1000 993L1125 985L1250 1020L1375 986L1500 1014L1625 1001L1750 988L1875 1013L2000 997L2000 1081L1875 1081L1750 1081L1625 1081L1500 1081L1375 1081L1250 1081L1125 1081L1000 1081L875 1081L750 1081L625 1081L500 1081L375 1081L250 1081L125 1081L0 1081Z" fill="#876751"></path>

<path d="M0 1010L125 1034L250 1026L375 1011L500 1037L625 1019L750 1027L875 1005L1000 1002L1125 1023L1250 1012L1375 1005L1500 1027L1625 1022L1750 1019L1875 1028L2000 1035L2000 1081L1875 1081L1750 1081L1625 1081L1500 1081L1375 1081L1250 1081L1125 1081L1000 1081L875 1081L750 1081L625 1081L500 1081L375 1081L250 1081L125 1081L0 1081Z" fill="#75553f"></path>

<path d="M0 1030L125 1044L250 1042L375 1042L500 1029L625 1032L750 1037L875 1020L1000 1027L1125 1033L1250 1024L1375 1044L1500 1030L1625 1044L1750 1019L1875 1045L2000 1018L2000 1081L1875 1081L1750 1081L1625 1081L1500 1081L1375 1081L1250 1081L1125 1081L1000 1081L875 1081L750 1081L625 1081L500 1081L375 1081L250 1081L125 1081L0 1081Z" fill="#63432e"></path>

<path d="M0 1042L125 1043L250 1040L375 1043L500 1043L625 1048L750 1032L875 1037L1000 1051L1125 1052L1250 1037L1375 1039L1500 1048L1625 1038L1750 1039L1875 1051L2000 1037L2000 1081L1875 1081L1750 1081L1625 1081L1500 1081L1375 1081L1250 1081L1125 1081L1000 1081L875 1081L750 1081L625 1081L500 1081L375 1081L250 1081L125 1081L0 1081Z" fill="#51321f"></path>

<path d="M0 1059L125 1057L250 1053L375 1054L500 1058L625 1052L750 1060L875 1057L1000 1052L1125 1053L1250 1052L1375 1050L1500 1058L1625 1053L1750 1060L1875 1057L2000 1055L2000 1081L1875 1081L1750 1081L1625 1081L1500 1081L1375 1081L1250 1081L1125 1081L1000 1081L875 1081L750 1081L625 1081L500 1081L375 1081L250 1081L125 1081L0 1081Z" fill="#40210f"></path>

</svg>