<svg id="visual" viewBox="0 0 2000 1080" width="2000" height="1080" xmlns="http://www.w3.org/2000/svg" xmlns:xlink="http://www.w3.org/1999/xlink" version="1.1">

<path d="M0 980L125 982L250 993L375 959L500 961L625 956L750 986L875 966L1000 992L1125 985L1250 986L1375 947L1500 940L1625 953L1750 973L1875 974L2000 940L2000 1081L1875 1081L1750 1081L1625 1081L1500 1081L1375 1081L1250 1081L1125 1081L1000 1081L875 1081L750 1081L625 1081L500 1081L375 1081L250 1081L125 1081L0 1081Z" fill="#bfa38a"></path>

<path d="M0 995L125 986L250 992L375 991L500 984L625 959L750 967L875 1003L1000 971L1125 990L1250 1009L1375 971L1500 993L1625 980L1750 967L1875 981L2000 958L2000 1081L1875 1081L1750 1081L1625 1081L1500 1081L1375 1081L1250 1081L1125 1081L1000 1081L875 1081L750 1081L625 1081L500 1081L375 1081L250 1081L125 1081L0 1081Z" fill="#ac8f76"></path>

<path d="M0 1007L125 1019L250 992L375 1004L500 981L625 1015L750 990L875 999L1000 992L1125 972L1250 995L1375 1013L1500 987L1625 1003L1750 977L1875 1019L2000 1018L2000 1081L1875 1081L1750 1081L1625 1081L1500 1081L1375 1081L1250 1081L1125 1081L1000 1081L875 1081L750 1081L625 1081L500 1081L375 1081L250 1081L125 1081L0 1081Z" fill="#997b63"></path>

<path d="M0 997L125 1014L250 1019L375 990L500 1023L625 1028L750 1012L875 999L1000 1010L1125 993L1250 993L1375 996L1500 1028L1625 1007L1750 1020L1875 989L2000 1009L2000 1081L1875 1081L1750 1081L1625 1081L1500 1081L1375 1081L1250 1081L1125 1081L1000 1081L875 1081L750 1081L625 1081L500 1081L375 1081L250 1081L125 1081L0 1081Z" fill="#876751"></path>

<path d="M0 1032L125 1017L250 1028L375 1018L500 1030L625 1028L750 1007L875 1003L1000 1008L1125 1026L1250 1034L1375 1021L1500 1001L1625 1013L1750 1025L1875 1012L2000 1006L2000 1081L1875 1081L1750 1081L1625 1081L1500 1081L1375 1081L1250 1081L1125 1081L1000 1081L875 1081L750 1081L625 1081L500 1081L375 1081L250 1081L125 1081L0 1081Z" fill="#75553f"></path>

<path d="M0 1017L125 1019L250 1022L375 1022L500 1030L625 1019L750 1044L875 1023L1000 1044L1125 1043L1250 1043L1375 1025L1500 1045L1625 1039L1750 1036L1875 1044L2000 1043L2000 1081L1875 1081L1750 1081L1625 1081L1500 1081L1375 1081L1250 1081L1125 1081L1000 1081L875 1081L750 1081L625 1081L500 1081L375 1081L250 1081L125 1081L0 1081Z" fill="#63432e"></path>

<path d="M0 1047L125 1052L250 1048L375 1040L500 1043L625 1037L750 1050L875 1034L1000 1043L1125 1051L1250 1034L1375 1039L1500 1049L1625 1047L1750 1051L1875 1051L2000 1037L2000 1081L1875 1081L1750 1081L1625 1081L1500 1081L1375 1081L1250 1081L1125 1081L1000 1081L875 1081L750 1081L625 1081L500 1081L375 1081L250 1081L125 1081L0 1081Z" fill="#51321f"></path>

<path d="M0 1054L125 1060L250 1052L375 1051L500 1061L625 1053L750 1059L875 1049L1000 1056L1125 1055L1250 1054L1375 1054L1500 1062L1625 1050L1750 1049L1875 1055L2000 1058L2000 1081L1875 1081L1750 1081L1625 1081L1500 1081L1375 1081L1250 1081L1125 1081L1000 1081L875 1081L750 1081L625 1081L500 1081L375 1081L250 1081L125 1081L0 1081Z" fill="#40210f"></path>

</svg>