<svg id="visual" viewBox="0 0 1920 1080" width="1920" height="1080" xmlns="http://www.w3.org/2000/svg" xmlns:xlink="http://www.w3.org/1999/xlink" version="1.1"><path d="M0 141L160 163L320 217L480 195L640 152L800 163L960 206L1120 185L1280 217L1440 163L1600 152L1760 120L1920 217L1920 0L1760 0L1600 0L1440 0L1280 0L1120 0L960 0L800 0L640 0L480 0L320 0L160 0L0 0Z" fill="#f2e5d5"></path><path d="M0 271L160 239L320 347L480 271L640 260L800 249L960 336L1120 282L1280 314L1440 249L1600 228L1760 228L1920 303L1920 215L1760 118L1600 150L1440 161L1280 215L1120 183L960 204L800 161L640 150L480 193L320 215L160 161L0 139Z" fill="#ddcbb8"></path><path d="M0 401L160 379L320 433L480 444L640 390L800 368L960 433L1120 390L1280 465L1440 390L1600 347L1760 401L1920 465L1920 301L1760 226L1600 226L1440 247L1280 312L1120 280L960 334L800 247L640 258L480 269L320 345L160 237L0 269Z" fill="#c8b29c"></path><path d="M0 660L160 627L320 638L480 714L640 746L800 660L960 681L1120 779L1280 681L1440 735L1600 681L1760 746L1920 714L1920 463L1760 399L1600 345L1440 388L1280 463L1120 388L960 431L800 366L640 388L480 442L320 431L160 377L0 399Z" fill="#b49a82"></path><path d="M0 973L160 930L320 951L480 941L640 995L800 962L960 941L1120 984L1280 962L1440 973L1600 951L1760 995L1920 995L1920 712L1760 744L1600 679L1440 733L1280 679L1120 777L960 679L800 658L640 744L480 712L320 636L160 625L0 658Z" fill="#a08268"></path><path d="M0 1081L160 1081L320 1081L480 1081L640 1081L800 1081L960 1081L1120 1081L1280 1081L1440 1081L1600 1081L1760 1081L1920 1081L1920 993L1760 993L1600 949L1440 971L1280 960L1120 982L960 939L800 960L640 993L480 939L320 949L160 928L0 971Z" fill="#8c6b4f"></path></svg>