<svg id="visual" viewBox="0 0 960 540" width="960" height="540" xmlns="http://www.w3.org/2000/svg" xmlns:xlink="http://www.w3.org/1999/xlink" version="1.1"><path d="M0 23L7 23.8C14 24.7 28 26.3 41.8 26.3C55.7 26.3 69.3 24.7 83.2 22.8C97 21 111 19 125 19.8C139 20.7 153 24.3 167 24.3C181 24.3 195 20.7 208.8 20.7C222.7 20.7 236.3 24.3 250.2 25.3C264 26.3 278 24.7 292 23.8C306 23 320 23 334 23.8C348 24.7 362 26.3 375.8 25.3C389.7 24.3 403.3 20.7 417.2 18.8C431 17 445 17 459 18C473 19 487 21 501 22C515 23 529 23 542.8 23C556.7 23 570.3 23 584.2 23.8C598 24.7 612 26.3 626 26.3C640 26.3 654 24.7 668 23.8C682 23 696 23 709.8 23C723.7 23 737.3 23 751.2 23C765 23 779 23 793 22C807 21 821 19 835 18C849 17 863 17 876.8 18C890.7 19 904.3 21 918.2 22.8C932 24.7 946 26.3 953 27.2L960 28L960 0L953 0C946 0 932 0 918.2 0C904.3 0 890.7 0 876.8 0C863 0 849 0 835 0C821 0 807 0 793 0C779 0 765 0 751.2 0C737.3 0 723.7 0 709.8 0C696 0 682 0 668 0C654 0 640 0 626 0C612 0 598 0 584.2 0C570.3 0 556.7 0 542.8 0C529 0 515 0 501 0C487 0 473 0 459 0C445 0 431 0 417.2 0C403.3 0 389.7 0 375.8 0C362 0 348 0 334 0C320 0 306 0 292 0C278 0 264 0 250.2 0C236.3 0 222.7 0 208.8 0C195 0 181 0 167 0C153 0 139 0 125 0C111 0 97 0 83.2 0C69.3 0 55.7 0 41.8 0C28 0 14 0 7 0L0 0Z" fill="#40210f"></path><path d="M0 44L7 44C14 44 28 44 41.8 44C55.7 44 69.3 44 83.2 43.2C97 42.3 111 40.7 125 41.7C139 42.7 153 46.3 167 45.3C181 44.3 195 38.7 208.8 38.7C222.7 38.7 236.3 44.3 250.2 45.3C264 46.3 278 42.7 292 40.8C306 39 320 39 334 39.8C348 40.7 362 42.3 375.8 41.3C389.7 40.3 403.3 36.7 417.2 34.8C431 33 445 33 459 34C473 35 487 37 501 38.8C515 40.7 529 42.3 542.8 42.3C556.7 42.3 570.3 40.7 584.2 41.7C598 42.7 612 46.3 626 46.3C640 46.3 654 42.7 668 40.8C682 39 696 39 709.8 39C723.7 39 737.3 39 751.2 39.8C765 40.7 779 42.3 793 41.3C807 40.3 821 36.7 835 35.8C849 35 863 37 876.8 38.8C890.7 40.7 904.3 42.3 918.2 43.2C932 44 946 44 953 44L960 44L960 26L953 25.2C946 24.3 932 22.7 918.2 20.8C904.3 19 890.7 17 876.8 16C863 15 849 15 835 16C821 17 807 19 793 20C779 21 765 21 751.2 21C737.3 21 723.7 21 709.8 21C696 21 682 21 668 21.8C654 22.7 640 24.3 626 24.3C612 24.3 598 22.7 584.2 21.8C570.3 21 556.7 21 542.8 21C529 21 515 21 501 20C487 19 473 17 459 16C445 15 431 15 417.2 16.8C403.3 18.7 389.7 22.3 375.8 23.3C362 24.3 348 22.7 334 21.8C320 21 306 21 292 21.8C278 22.7 264 24.3 250.2 23.3C236.3 22.3 222.7 18.7 208.8 18.7C195 18.7 181 22.3 167 22.3C153 22.3 139 18.7 125 17.8C111 17 97 19 83.2 20.8C69.3 22.7 55.7 24.3 41.8 24.3C28 24.3 14 22.7 7 21.8L0 21Z" fill="#4f311e"></path><path d="M0 82L7 79.3C14 76.7 28 71.3 41.8 69.5C55.7 67.7 69.3 69.3 83.2 70.2C97 71 111 71 125 72C139 73 153 75 167 73.2C181 71.3 195 65.7 208.8 64.7C222.7 63.7 236.3 67.3 250.2 69.2C264 71 278 71 292 72C306 73 320 75 334 74.2C348 73.3 362 69.7 375.8 66.8C389.7 64 403.3 62 417.2 60.2C431 58.3 445 56.7 459 56.7C473 56.7 487 58.3 501 61C515 63.7 529 67.3 542.8 68.3C556.7 69.3 570.3 67.7 584.2 70.3C598 73 612 80 626 80.8C640 81.7 654 76.3 668 73.7C682 71 696 71 709.8 71C723.7 71 737.3 71 751.2 72.8C765 74.7 779 78.3 793 77.5C807 76.7 821 71.3 835 70.5C849 69.7 863 73.3 876.8 75.2C890.7 77 904.3 77 918.2 77.8C932 78.7 946 80.3 953 81.2L960 82L960 42L953 42C946 42 932 42 918.2 41.2C904.3 40.3 890.7 38.7 876.8 36.8C863 35 849 33 835 33.8C821 34.7 807 38.3 793 39.3C779 40.3 765 38.7 751.2 37.8C737.3 37 723.7 37 709.8 37C696 37 682 37 668 38.8C654 40.7 640 44.3 626 44.3C612 44.3 598 40.7 584.2 39.7C570.3 38.7 556.7 40.3 542.8 40.3C529 40.3 515 38.7 501 36.8C487 35 473 33 459 32C445 31 431 31 417.2 32.8C403.3 34.7 389.7 38.3 375.8 39.3C362 40.3 348 38.7 334 37.8C320 37 306 37 292 38.8C278 40.7 264 44.3 250.2 43.3C236.3 42.3 222.7 36.7 208.8 36.7C195 36.7 181 42.3 167 43.3C153 44.3 139 40.7 125 39.7C111 38.7 97 40.3 83.2 41.2C69.3 42 55.7 42 41.8 42C28 42 14 42 7 42L0 42Z" fill="#5e412d"></path><path d="M0 104L7 100.3C14 96.7 28 89.3 41.8 87.5C55.7 85.7 69.3 89.3 83.2 92C97 94.7 111 96.3 125 96.3C139 96.3 153 94.7 167 92.8C181 91 195 89 208.8 89C222.7 89 236.3 91 250.2 92C264 93 278 93 292 93.8C306 94.7 320 96.3 334 94.5C348 92.7 362 87.3 375.8 85.5C389.7 83.7 403.3 85.3 417.2 84.5C431 83.7 445 80.3 459 79.5C473 78.7 487 80.3 501 83C515 85.7 529 89.3 542.8 89.3C556.7 89.3 570.3 85.7 584.2 89.2C598 92.7 612 103.3 626 105.2C640 107 654 100 668 96.5C682 93 696 93 709.8 93.8C723.7 94.7 737.3 96.3 751.2 97.2C765 98 779 98 793 95.3C807 92.7 821 87.3 835 88.3C849 89.3 863 96.7 876.8 99.3C890.7 102 904.3 100 918.2 99C932 98 946 98 953 98L960 98L960 80L953 79.2C946 78.3 932 76.7 918.2 75.8C904.3 75 890.7 75 876.8 73.2C863 71.3 849 67.7 835 68.5C821 69.3 807 74.7 793 75.5C779 76.3 765 72.7 751.2 70.8C737.3 69 723.7 69 709.8 69C696 69 682 69 668 71.7C654 74.3 640 79.7 626 78.8C612 78 598 71 584.2 68.3C570.3 65.7 556.7 67.3 542.8 66.3C529 65.3 515 61.7 501 59C487 56.3 473 54.7 459 54.7C445 54.7 431 56.3 417.2 58.2C403.3 60 389.7 62 375.8 64.8C362 67.7 348 71.3 334 72.2C320 73 306 71 292 70C278 69 264 69 250.2 67.2C236.3 65.3 222.7 61.7 208.8 62.7C195 63.7 181 69.3 167 71.2C153 73 139 71 125 70C111 69 97 69 83.2 68.2C69.3 67.3 55.7 65.7 41.8 67.5C28 69.3 14 74.7 7 77.3L0 80Z" fill="#6e513d"></path><path d="M0 185L7 191.2C14 197.3 28 209.7 41.8 206.8C55.7 204 69.3 186 83.2 184.3C97 182.7 111 197.3 125 197.3C139 197.3 153 182.7 167 176.3C181 170 195 172 208.8 177.5C222.7 183 236.3 192 250.2 189.3C264 186.7 278 172.3 292 175C306 177.7 320 197.3 334 202.7C348 208 362 199 375.8 196.3C389.7 193.7 403.3 197.3 417.2 193.7C431 190 445 179 459 178C473 177 487 186 501 187C515 188 529 181 542.8 180.2C556.7 179.3 570.3 184.7 584.2 188.2C598 191.7 612 193.3 626 188C640 182.7 654 170.3 668 167.7C682 165 696 172 709.8 178.2C723.7 184.3 737.3 189.7 751.2 191.5C765 193.3 779 191.7 793 190.8C807 190 821 190 835 195.3C849 200.7 863 211.3 876.8 215C890.7 218.7 904.3 215.3 918.2 208.2C932 201 946 190 953 184.5L960 179L960 96L953 96C946 96 932 96 918.2 97C904.3 98 890.7 100 876.8 97.3C863 94.7 849 87.3 835 86.3C821 85.3 807 90.7 793 93.3C779 96 765 96 751.2 95.2C737.3 94.3 723.7 92.7 709.8 91.8C696 91 682 91 668 94.5C654 98 640 105 626 103.2C612 101.3 598 90.7 584.2 87.2C570.3 83.7 556.7 87.3 542.8 87.3C529 87.3 515 83.7 501 81C487 78.3 473 76.7 459 77.5C445 78.3 431 81.7 417.2 82.5C403.3 83.3 389.7 81.7 375.8 83.5C362 85.3 348 90.7 334 92.5C320 94.3 306 92.7 292 91.8C278 91 264 91 250.2 90C236.3 89 222.7 87 208.8 87C195 87 181 89 167 90.8C153 92.7 139 94.3 125 94.3C111 94.3 97 92.7 83.2 90C69.3 87.3 55.7 83.7 41.8 85.5C28 87.3 14 94.7 7 98.3L0 102Z" fill="#7d624e"></path><path d="M0 217L7 226C14 235 28 253 41.8 253.8C55.7 254.7 69.3 238.3 83.2 235.7C97 233 111 244 125 241.3C139 238.7 153 222.3 167 216C181 209.7 195 213.3 208.8 217C222.7 220.7 236.3 224.3 250.2 222.5C264 220.7 278 213.3 292 216C306 218.7 320 231.3 334 237.7C348 244 362 244 375.8 244C389.7 244 403.3 244 417.2 237.7C431 231.3 445 218.7 459 219.5C473 220.3 487 234.7 501 237.3C515 240 529 231 542.8 228.3C556.7 225.7 570.3 229.3 584.2 229.3C598 229.3 612 225.7 626 222.2C640 218.7 654 215.3 668 214.5C682 213.7 696 215.3 709.8 219.8C723.7 224.3 737.3 231.7 751.2 231.7C765 231.7 779 224.3 793 222.5C807 220.7 821 224.3 835 231.5C849 238.7 863 249.3 876.8 252.8C890.7 256.3 904.3 252.7 918.2 246.3C932 240 946 231 953 226.5L960 222L960 177L953 182.5C946 188 932 199 918.2 206.2C904.3 213.3 890.7 216.7 876.8 213C863 209.3 849 198.7 835 193.3C821 188 807 188 793 188.8C779 189.7 765 191.3 751.2 189.5C737.3 187.7 723.7 182.3 709.8 176.2C696 170 682 163 668 165.7C654 168.3 640 180.7 626 186C612 191.3 598 189.7 584.2 186.2C570.3 182.7 556.7 177.3 542.8 178.2C529 179 515 186 501 185C487 184 473 175 459 176C445 177 431 188 417.2 191.7C403.3 195.3 389.7 191.7 375.8 194.3C362 197 348 206 334 200.7C320 195.3 306 175.7 292 173C278 170.3 264 184.7 250.2 187.3C236.3 190 222.7 181 208.8 175.5C195 170 181 168 167 174.3C153 180.7 139 195.3 125 195.3C111 195.3 97 180.7 83.2 182.3C69.3 184 55.7 202 41.8 204.8C28 207.7 14 195.3 7 189.2L0 183Z" fill="#8d745f"></path><path d="M0 271L7 278.2C14 285.3 28 299.7 41.8 298.8C55.7 298 69.3 282 83.2 280.2C97 278.3 111 290.7 125 287C139 283.3 153 263.7 167 259.2C181 254.7 195 265.3 208.8 271.7C222.7 278 236.3 280 250.2 274.7C264 269.3 278 256.7 292 261.2C306 265.7 320 287.3 334 295.5C348 303.7 362 298.3 375.8 295.7C389.7 293 403.3 293 417.2 289.3C431 285.7 445 278.3 459 281C473 283.7 487 296.3 501 297.2C515 298 529 287 542.8 281.5C556.7 276 570.3 276 584.2 272.5C598 269 612 262 626 260.3C640 258.7 654 262.3 668 263.2C682 264 696 262 709.8 264.7C723.7 267.3 737.3 274.7 751.2 276.5C765 278.3 779 274.7 793 272.8C807 271 821 271 835 276.3C849 281.7 863 292.3 876.8 294.2C890.7 296 904.3 289 918.2 282.8C932 276.7 946 271.3 953 268.7L960 266L960 220L953 224.5C946 229 932 238 918.2 244.3C904.3 250.7 890.7 254.3 876.8 250.8C863 247.3 849 236.7 835 229.5C821 222.3 807 218.7 793 220.5C779 222.3 765 229.7 751.2 229.7C737.3 229.7 723.7 222.3 709.8 217.8C696 213.3 682 211.7 668 212.5C654 213.3 640 216.7 626 220.2C612 223.7 598 227.3 584.2 227.3C570.3 227.3 556.7 223.7 542.8 226.3C529 229 515 238 501 235.3C487 232.7 473 218.3 459 217.5C445 216.7 431 229.3 417.2 235.7C403.3 242 389.7 242 375.8 242C362 242 348 242 334 235.7C320 229.3 306 216.7 292 214C278 211.3 264 218.7 250.2 220.5C236.3 222.3 222.7 218.7 208.8 215C195 211.3 181 207.7 167 214C153 220.3 139 236.7 125 239.3C111 242 97 231 83.2 233.7C69.3 236.3 55.7 252.7 41.8 251.8C28 251 14 233 7 224L0 215Z" fill="#9d8671"></path><path d="M0 401L7 401.8C14 402.7 28 404.3 41.8 402.5C55.7 400.7 69.3 395.3 83.2 393.5C97 391.7 111 393.3 125 388.8C139 384.3 153 373.7 167 373.7C181 373.7 195 384.3 208.8 386.2C222.7 388 236.3 381 250.2 377.5C264 374 278 374 292 381.2C306 388.3 320 402.7 334 404.3C348 406 362 395 375.8 392.3C389.7 389.7 403.3 395.3 417.2 393.7C431 392 445 383 459 381.2C473 379.3 487 384.7 501 389.2C515 393.7 529 397.3 542.8 400C556.7 402.7 570.3 404.3 584.2 404.3C598 404.3 612 402.7 626 399C640 395.3 654 389.7 668 383.3C682 377 696 370 709.8 370C723.7 370 737.3 377 751.2 380.5C765 384 779 384 793 383.2C807 382.3 821 380.7 835 382.5C849 384.3 863 389.7 876.8 392.3C890.7 395 904.3 395 918.2 398.7C932 402.3 946 409.7 953 413.3L960 417L960 264L953 266.7C946 269.3 932 274.7 918.2 280.8C904.3 287 890.7 294 876.8 292.2C863 290.3 849 279.7 835 274.3C821 269 807 269 793 270.8C779 272.7 765 276.3 751.2 274.5C737.3 272.7 723.7 265.3 709.8 262.7C696 260 682 262 668 261.2C654 260.3 640 256.7 626 258.3C612 260 598 267 584.2 270.5C570.3 274 556.7 274 542.8 279.5C529 285 515 296 501 295.2C487 294.3 473 281.7 459 279C445 276.3 431 283.7 417.2 287.3C403.3 291 389.7 291 375.8 293.7C362 296.3 348 301.7 334 293.5C320 285.3 306 263.7 292 259.2C278 254.7 264 267.3 250.2 272.7C236.3 278 222.7 276 208.8 269.7C195 263.3 181 252.7 167 257.2C153 261.7 139 281.3 125 285C111 288.7 97 276.3 83.2 278.2C69.3 280 55.7 296 41.8 296.8C28 297.7 14 283.3 7 276.2L0 269Z" fill="#ae9884"></path><path d="M0 417L7 420.5C14 424 28 431 41.8 429.2C55.7 427.3 69.3 416.7 83.2 415C97 413.3 111 420.7 125 418.8C139 417 153 406 167 406C181 406 195 417 208.8 418.8C222.7 420.7 236.3 413.3 250.2 409.7C264 406 278 406 292 412.3C306 418.7 320 431.3 334 430.5C348 429.7 362 415.3 375.8 410.8C389.7 406.3 403.3 411.7 417.2 411.7C431 411.7 445 406.3 459 404.5C473 402.7 487 404.3 501 409.7C515 415 529 424 542.8 426.7C556.7 429.3 570.3 425.7 584.2 424.8C598 424 612 426 626 424.2C640 422.3 654 416.7 668 411.2C682 405.7 696 400.3 709.8 398.7C723.7 397 737.3 399 751.2 402.7C765 406.3 779 411.7 793 411.7C807 411.7 821 406.3 835 407.2C849 408 863 415 876.8 419.5C890.7 424 904.3 426 918.2 430.5C932 435 946 442 953 445.5L960 449L960 415L953 411.3C946 407.7 932 400.3 918.2 396.7C904.3 393 890.7 393 876.8 390.3C863 387.7 849 382.3 835 380.5C821 378.7 807 380.3 793 381.2C779 382 765 382 751.2 378.5C737.3 375 723.7 368 709.8 368C696 368 682 375 668 381.3C654 387.7 640 393.3 626 397C612 400.7 598 402.3 584.2 402.3C570.3 402.3 556.7 400.7 542.8 398C529 395.3 515 391.7 501 387.2C487 382.7 473 377.3 459 379.2C445 381 431 390 417.2 391.7C403.3 393.3 389.7 387.7 375.8 390.3C362 393 348 404 334 402.3C320 400.7 306 386.3 292 379.2C278 372 264 372 250.2 375.5C236.3 379 222.7 386 208.8 384.2C195 382.3 181 371.7 167 371.7C153 371.7 139 382.3 125 386.8C111 391.3 97 389.7 83.2 391.5C69.3 393.3 55.7 398.7 41.8 400.5C28 402.3 14 400.7 7 399.8L0 399Z" fill="#beab98"></path><path d="M0 492L7 492C14 492 28 492 41.8 492C55.7 492 69.3 492 83.2 490.3C97 488.7 111 485.3 125 482.7C139 480 153 478 167 477C181 476 195 476 208.8 477.8C222.7 479.7 236.3 483.3 250.2 484.3C264 485.3 278 483.7 292 484.5C306 485.3 320 488.7 334 487.7C348 486.7 362 481.3 375.8 477.8C389.7 474.3 403.3 472.7 417.2 471.8C431 471 445 471 459 471C473 471 487 471 501 472.8C515 474.7 529 478.3 542.8 479.2C556.7 480 570.3 478 584.2 477C598 476 612 476 626 477.8C640 479.7 654 483.3 668 482.5C682 481.7 696 476.3 709.8 474.5C723.7 472.7 737.3 474.3 751.2 477.8C765 481.3 779 486.7 793 486.7C807 486.7 821 481.3 835 480.5C849 479.7 863 483.3 876.8 484.3C890.7 485.3 904.3 483.7 918.2 484.5C932 485.3 946 488.7 953 490.3L960 492L960 447L953 443.5C946 440 932 433 918.2 428.5C904.3 424 890.7 422 876.8 417.5C863 413 849 406 835 405.2C821 404.3 807 409.7 793 409.7C779 409.7 765 404.3 751.2 400.7C737.3 397 723.7 395 709.8 396.7C696 398.3 682 403.7 668 409.2C654 414.7 640 420.3 626 422.2C612 424 598 422 584.2 422.8C570.3 423.7 556.7 427.3 542.8 424.7C529 422 515 413 501 407.7C487 402.3 473 400.7 459 402.5C445 404.3 431 409.7 417.2 409.7C403.3 409.7 389.7 404.3 375.8 408.8C362 413.3 348 427.7 334 428.5C320 429.3 306 416.7 292 410.3C278 404 264 404 250.2 407.7C236.3 411.3 222.7 418.7 208.8 416.8C195 415 181 404 167 404C153 404 139 415 125 416.8C111 418.7 97 411.3 83.2 413C69.3 414.7 55.7 425.3 41.8 427.2C28 429 14 422 7 418.5L0 415Z" fill="#cfbeac"></path><path d="M0 519L7 519C14 519 28 519 41.8 519C55.7 519 69.3 519 83.2 517.3C97 515.7 111 512.3 125 511.5C139 510.7 153 512.3 167 514C181 515.7 195 517.3 208.8 517.3C222.7 517.3 236.3 515.7 250.2 514C264 512.3 278 510.7 292 511.5C306 512.3 320 515.7 334 517.3C348 519 362 519 375.8 518.2C389.7 517.3 403.3 515.7 417.2 514C431 512.3 445 510.7 459 510.7C473 510.7 487 512.3 501 512.3C515 512.3 529 510.7 542.8 511.5C556.7 512.3 570.3 515.7 584.2 517.3C598 519 612 519 626 519C640 519 654 519 668 518.2C682 517.3 696 515.7 709.8 514.8C723.7 514 737.3 514 751.2 514C765 514 779 514 793 514.8C807 515.7 821 517.3 835 516.5C849 515.7 863 512.3 876.8 512.3C890.7 512.3 904.3 515.7 918.2 516.5C932 517.3 946 515.7 953 514.8L960 514L960 490L953 488.3C946 486.7 932 483.3 918.2 482.5C904.3 481.7 890.7 483.3 876.8 482.3C863 481.3 849 477.7 835 478.5C821 479.3 807 484.7 793 484.7C779 484.7 765 479.3 751.2 475.8C737.3 472.3 723.7 470.7 709.8 472.5C696 474.3 682 479.7 668 480.5C654 481.3 640 477.7 626 475.8C612 474 598 474 584.2 475C570.3 476 556.7 478 542.8 477.2C529 476.3 515 472.7 501 470.8C487 469 473 469 459 469C445 469 431 469 417.2 469.8C403.3 470.7 389.7 472.3 375.8 475.8C362 479.3 348 484.7 334 485.7C320 486.7 306 483.3 292 482.5C278 481.7 264 483.3 250.2 482.3C236.3 481.3 222.7 477.7 208.8 475.8C195 474 181 474 167 475C153 476 139 478 125 480.7C111 483.3 97 486.7 83.2 488.3C69.3 490 55.7 490 41.8 490C28 490 14 490 7 490L0 490Z" fill="#e0d1c0"></path><path d="M0 541L7 541C14 541 28 541 41.8 541C55.7 541 69.3 541 83.2 541C97 541 111 541 125 541C139 541 153 541 167 541C181 541 195 541 208.8 541C222.7 541 236.3 541 250.2 541C264 541 278 541 292 541C306 541 320 541 334 541C348 541 362 541 375.8 541C389.7 541 403.3 541 417.2 541C431 541 445 541 459 541C473 541 487 541 501 541C515 541 529 541 542.8 541C556.7 541 570.3 541 584.2 541C598 541 612 541 626 541C640 541 654 541 668 541C682 541 696 541 709.8 541C723.7 541 737.3 541 751.2 541C765 541 779 541 793 541C807 541 821 541 835 541C849 541 863 541 876.8 541C890.7 541 904.3 541 918.2 541C932 541 946 541 953 541L960 541L960 512L953 512.8C946 513.7 932 515.3 918.2 514.5C904.3 513.7 890.7 510.3 876.8 510.3C863 510.3 849 513.7 835 514.5C821 515.3 807 513.7 793 512.8C779 512 765 512 751.2 512C737.3 512 723.7 512 709.8 512.8C696 513.7 682 515.3 668 516.2C654 517 640 517 626 517C612 517 598 517 584.2 515.3C570.3 513.7 556.7 510.3 542.8 509.5C529 508.7 515 510.3 501 510.3C487 510.3 473 508.7 459 508.7C445 508.7 431 510.3 417.2 512C403.3 513.7 389.7 515.3 375.8 516.2C362 517 348 517 334 515.3C320 513.7 306 510.3 292 509.5C278 508.7 264 510.3 250.2 512C236.3 513.7 222.7 515.3 208.8 515.3C195 515.3 181 513.7 167 512C153 510.3 139 508.7 125 509.5C111 510.3 97 513.7 83.2 515.3C69.3 517 55.7 517 41.8 517C28 517 14 517 7 517L0 517Z" fill="#f2e5d5"></path></svg>